<svg width="12" height="12" viewBox="0 0 12 12" fill="none" xmlns="http://www.w3.org/2000/svg">
<path d="M1.33325 10.6668H2.17425L8.99859 3.8425L8.15759 3.0015L1.33325 9.82583V10.6668ZM0.333252 11.6668V9.4105L9.12692 0.620662C9.2277 0.529107 9.33898 0.458385 9.46075 0.408496C9.58264 0.358496 9.71042 0.333496 9.84409 0.333496C9.97775 0.333496 10.1072 0.357219 10.2324 0.404663C10.3578 0.452108 10.4687 0.527551 10.5653 0.630996L11.3794 1.45533C11.4829 1.55189 11.5566 1.663 11.6006 1.78866C11.6446 1.91433 11.6666 2.04 11.6666 2.16566C11.6666 2.29977 11.6437 2.42772 11.5979 2.5495C11.5521 2.67139 11.4793 2.78272 11.3794 2.8835L2.58959 11.6668H0.333252ZM8.57075 3.42933L8.15759 3.0015L8.99859 3.8425L8.57075 3.42933Z" fill="black"/>
</svg>
