<svg xmlns="http://www.w3.org/2000/svg" width="18" height="16" viewBox="0 0 18 16">
  <g id="Group_13391" data-name="Group 13391" transform="translate(-39 -734)">
    <g id="Polygon_1" data-name="Polygon 1" transform="translate(39 734)" fill="none">
      <path d="M7.257,3.1a2,2,0,0,1,3.486,0l5.58,9.921A2,2,0,0,1,14.58,16H3.42a2,2,0,0,1-1.743-2.981Z" stroke="none"/>
      <path d="M 9.000000953674316 3.579455375671387 C 8.890790939331055 3.579455375671387 8.688950538635254 3.612565994262695 8.564210891723633 3.834325790405273 L 2.983901023864746 13.7548656463623 C 2.861560821533203 13.97236633300781 2.93401050567627 14.15995597839355 2.988090515136719 14.25241565704346 C 3.042160987854004 14.34488582611084 3.170141220092773 14.49999618530273 3.41969108581543 14.49999618530273 L 14.58030128479004 14.49999618530273 C 14.82986068725586 14.49999618530273 14.95784091949463 14.34487533569336 15.01191139221191 14.25241565704346 C 15.06599044799805 14.15995597839355 15.13843154907227 13.97237586975098 15.01609039306641 13.7548656463623 L 9.435791015625 3.834336280822754 C 9.311051368713379 3.612565994262695 9.109210968017578 3.579455375671387 9.000000953674316 3.579455375671387 M 9.000000953674316 2.079461097717285 C 9.680423736572266 2.079461097717285 10.3608455657959 2.419285774230957 10.74315071105957 3.098936080932617 L 16.32345008850098 13.01947593688965 C 17.07339096069336 14.35268592834473 16.10996055603027 15.99999618530273 14.58030128479004 15.99999618530273 L 3.41969108581543 15.99999618530273 C 1.890041351318359 15.99999618530273 0.9266109466552734 14.35268592834473 1.676540374755859 13.01947593688965 L 7.256851196289062 3.098936080932617 C 7.639156341552734 2.419285774230957 8.319578170776367 2.079461097717285 9.000000953674316 2.079461097717285 Z" stroke="none" fill="#ff0707"/>
    </g>
    <line id="Line_494" data-name="Line 494" y2="4" transform="translate(48 740.5)" fill="none" stroke="red" stroke-width="1.5"/>
    <line id="Line_495" data-name="Line 495" y2="2" transform="translate(48 745.5)" fill="none" stroke="red" stroke-width="1.5"/>
  </g>
</svg>
