<svg width="32" height="32" viewBox="0 0 32 32" fill="none" xmlns="http://www.w3.org/2000/svg">
<circle cx="16" cy="16" r="16" fill="url(#paint0_linear_1259_822)" fill-opacity="0.4"/>
<path d="M10.0186 21.2913C10.8686 20.6606 11.7946 20.1625 12.7966 19.797C13.7984 19.4317 14.8648 19.249 15.9956 19.249C17.1264 19.249 18.1928 19.4317 19.1946 19.797C20.1966 20.1625 21.1226 20.6606 21.9726 21.2913C22.5943 20.6079 23.0869 19.8169 23.4504 18.9183C23.8139 18.0196 23.9956 17.0465 23.9956 15.999C23.9956 13.7824 23.2164 11.8949 21.6581 10.3365C20.0998 8.77819 18.2123 7.99902 15.9956 7.99902C13.7789 7.99902 11.8914 8.77819 10.3331 10.3365C8.77477 11.8949 7.99561 13.7824 7.99561 15.999C7.99561 17.0465 8.17736 18.0196 8.54086 18.9183C8.90436 19.8169 9.39694 20.6079 10.0186 21.2913ZM15.9959 16.749C15.0829 16.749 14.3129 16.4357 13.6861 15.809C13.0591 15.1822 12.7456 14.4123 12.7456 13.4993C12.7456 12.5863 13.0589 11.8164 13.6856 11.1895C14.3124 10.5625 15.0824 10.249 15.9954 10.249C16.9084 10.249 17.6783 10.5624 18.3051 11.189C18.9321 11.8159 19.2456 12.5858 19.2456 13.4988C19.2456 14.4118 18.9323 15.1817 18.3056 15.8085C17.6788 16.4355 16.9089 16.749 15.9959 16.749ZM15.9956 25.499C14.6764 25.499 13.4389 25.2509 12.2831 24.7548C11.1273 24.2586 10.1219 23.5829 9.26686 22.7278C8.41169 21.8728 7.73602 20.8674 7.23986 19.7115C6.74369 18.5557 6.49561 17.3182 6.49561 15.999C6.49561 14.6799 6.74369 13.4424 7.23986 12.2865C7.73602 11.1307 8.41169 10.1253 9.26686 9.27027C10.1219 8.41511 11.1273 7.73944 12.2831 7.24327C13.4389 6.74711 14.6764 6.49902 15.9956 6.49902C17.3148 6.49902 18.5523 6.74711 19.7081 7.24327C20.8639 7.73944 21.8694 8.41511 22.7244 9.27027C23.5795 10.1253 24.2552 11.1307 24.7514 12.2865C25.2475 13.4424 25.4956 14.6799 25.4956 15.999C25.4956 17.3182 25.2475 18.5557 24.7514 19.7115C24.2552 20.8674 23.5795 21.8728 22.7244 22.7278C21.8694 23.5829 20.8639 24.2586 19.7081 24.7548C18.5523 25.2509 17.3148 25.499 15.9956 25.499ZM15.9956 23.999C16.8981 23.999 17.7683 23.8539 18.6061 23.5635C19.4439 23.273 20.1879 22.8669 20.8379 22.3453C20.1879 21.8426 19.4536 21.4509 18.6351 21.1703C17.8164 20.8894 16.9366 20.749 15.9956 20.749C15.0546 20.749 14.1732 20.8878 13.3514 21.1653C12.5295 21.4429 11.7969 21.8363 11.1534 22.3453C11.8034 22.8669 12.5473 23.273 13.3851 23.5635C14.2229 23.8539 15.0931 23.999 15.9956 23.999ZM15.9956 15.249C16.4931 15.249 16.9091 15.0817 17.2436 14.747C17.5783 14.4125 17.7456 13.9965 17.7456 13.499C17.7456 13.0015 17.5783 12.5855 17.2436 12.251C16.9091 11.9164 16.4931 11.749 15.9956 11.749C15.4981 11.749 15.0821 11.9164 14.7476 12.251C14.4129 12.5855 14.2456 13.0015 14.2456 13.499C14.2456 13.9965 14.4129 14.4125 14.7476 14.747C15.0821 15.0817 15.4981 15.249 15.9956 15.249Z" fill="#F2F2F2"/>
<defs>
<linearGradient id="paint0_linear_1259_822" x1="46.9224" y1="-22.6562" x2="9.36668" y2="38.0883" gradientUnits="userSpaceOnUse">
<stop stop-color="#9DCFDA"/>
<stop offset="1" stop-color="#161D1F"/>
</linearGradient>
</defs>
</svg>
