<svg width="20" height="20" viewBox="0 0 20 20" fill="none" xmlns="http://www.w3.org/2000/svg">
<g id="Afternoon">
<path id="Vector" d="M9.40483 4.6415V1.72656H10.589V4.6415H9.40483ZM14.1993 6.63038L13.3871 5.81821L15.423 3.71544L16.2626 4.56709L14.1993 6.63038ZM15.3563 10.5929V9.40873H18.2712V10.5929H15.3563ZM9.40483 18.2751V15.3677H10.589V18.2751H9.40483ZM5.80976 6.5986L3.71154 4.57479L4.57088 3.74268L6.63417 5.79847L5.80976 6.5986ZM15.4109 16.2862L13.3871 14.1835L14.1873 13.391L16.2551 15.4026L15.4109 16.2862ZM1.72266 10.5929V9.40873H4.63759V10.5929H1.72266ZM4.56318 16.2862L3.73877 15.4269L5.77483 13.391L6.20292 13.7949L6.63871 14.2109L4.56318 16.2862ZM9.99871 14.3429C8.79305 14.3429 7.76766 13.921 6.92253 13.077C6.07739 12.2331 5.65483 11.2083 5.65483 10.0026C5.65483 8.79696 6.0768 7.77156 6.92075 6.92643C7.7647 6.0813 8.7895 5.65873 9.99516 5.65873C11.2008 5.65873 12.2262 6.08071 13.0713 6.92465C13.9165 7.7686 14.339 8.7934 14.339 9.99906C14.339 11.2047 13.9171 12.2301 13.0731 13.0752C12.2292 13.9204 11.2044 14.3429 9.99871 14.3429ZM9.99693 13.1587C10.8654 13.1587 11.6088 12.8495 12.2272 12.2311C12.8456 11.6127 13.1548 10.8693 13.1548 10.0008C13.1548 9.13242 12.8456 8.389 12.2272 7.77058C11.6088 7.15215 10.8654 6.84294 9.99693 6.84294C9.12851 6.84294 8.38509 7.15215 7.76667 7.77058C7.14825 8.389 6.83904 9.13242 6.83904 10.0008C6.83904 10.8693 7.14825 11.6127 7.76667 12.2311C8.38509 12.8495 9.12851 13.1587 9.99693 13.1587Z" fill="#767879"/>
</g>
</svg>
