<svg width="20" height="20" viewBox="0 0 20 20" fill="none" xmlns="http://www.w3.org/2000/svg">
<g id="call_24dp_FILL0_wght300_GRAD0_opsz24 1">
<path id="Vector" d="M16.2 17.0834C14.6296 17.0834 13.0519 16.7183 11.4669 15.988C9.88206 15.2577 8.42588 14.2276 7.09838 12.8976C5.77102 11.5674 4.7422 10.1112 4.01192 8.52883C3.28164 6.94661 2.9165 5.37029 2.9165 3.79987C2.9165 3.54751 2.99984 3.33723 3.1665 3.16904C3.33317 3.00084 3.5415 2.91675 3.7915 2.91675H6.50942C6.71984 2.91675 6.90546 2.98543 7.0663 3.12279C7.22713 3.26001 7.32942 3.4296 7.37317 3.63154L7.85088 6.08341C7.88393 6.31091 7.87699 6.5064 7.83005 6.66987C7.78296 6.83335 7.69852 6.97064 7.57671 7.08175L5.65213 8.95529C5.96185 9.52251 6.31574 10.0591 6.7138 10.5651C7.11171 11.0709 7.54255 11.554 8.0063 12.0145C8.46352 12.4718 8.94963 12.8965 9.46463 13.2886C9.97963 13.6807 10.5357 14.0456 11.133 14.3832L13.003 12.497C13.1334 12.3613 13.2913 12.2661 13.4767 12.2115C13.662 12.1571 13.8546 12.1438 14.0544 12.1715L16.3684 12.6428C16.5788 12.6983 16.7505 12.8057 16.8836 12.9649C17.0166 13.124 17.0832 13.3046 17.0832 13.5065V16.2084C17.0832 16.4584 16.9991 16.6667 16.8309 16.8334C16.6627 17.0001 16.4524 17.0834 16.2 17.0834ZM5.06067 7.77258L6.54796 6.34946C6.57463 6.32807 6.59199 6.29869 6.60005 6.26133C6.6081 6.22397 6.60678 6.18925 6.59609 6.15716L6.2338 4.29487C6.2231 4.25223 6.20442 4.22022 6.17775 4.19883C6.15109 4.17744 6.11637 4.16675 6.07359 4.16675H4.2915C4.25942 4.16675 4.23268 4.17744 4.2113 4.19883C4.19005 4.22022 4.17942 4.24696 4.17942 4.27904C4.22206 4.84848 4.31525 5.42696 4.459 6.01446C4.60261 6.6021 4.80317 7.18814 5.06067 7.77258ZM12.3107 14.9745C12.863 15.232 13.4391 15.4288 14.039 15.5651C14.639 15.7012 15.1996 15.7821 15.7209 15.8078C15.753 15.8078 15.7797 15.7971 15.8011 15.7757C15.8225 15.7543 15.8332 15.7276 15.8332 15.6955V13.9424C15.8332 13.8996 15.8225 13.8649 15.8011 13.8382C15.7797 13.8115 15.7477 13.7929 15.705 13.7822L13.955 13.4263C13.923 13.4156 13.8949 13.4143 13.8709 13.4224C13.8469 13.4304 13.8214 13.4478 13.7946 13.4745L12.3107 14.9745Z" fill="white"/>
</g>
</svg>
