<svg width="60" height="60" viewBox="0 0 60 60" fill="none" xmlns="http://www.w3.org/2000/svg">
<path d="M23.0253 55.6739L18.5641 48.1552L10.0928 46.2989L10.9197 37.5783L5.17969 31.0108L10.9197 24.4433L10.0928 15.7227L18.5641 13.8664L23.0253 6.34766L30.9966 9.73203L38.9678 6.34766L43.4291 13.8664L51.9003 15.7227L51.0734 24.4433L56.8134 31.0108L51.0734 37.5783L51.9003 46.2989L43.4291 48.1552L38.9678 55.6739L30.9966 52.2895L23.0253 55.6739ZM24.6216 50.8858L30.9966 48.1839L37.4484 50.8858L40.9966 44.8858L47.8716 43.3089L47.2466 36.2608L51.8716 31.0108L47.2466 25.6839L47.8716 18.6358L40.9966 17.1358L37.3716 11.1358L30.9966 13.8377L24.5447 11.1358L20.9966 17.1358L14.1216 18.6358L14.7466 25.6839L10.1216 31.0108L14.7466 36.2608L14.1216 43.3858L20.9966 44.8858L24.6216 50.8858ZM28.3716 39.0202L41.6309 25.7608L38.9966 23.0495L28.3716 33.6745L22.9966 28.3764L20.3622 31.0108L28.3716 39.0202Z" fill="white"/>
</svg>
