<svg xmlns="http://www.w3.org/2000/svg" width="20" height="20" viewBox="0 0 20 20" fill="none">
<rect width="20" height="20" rx="10" fill="#F2F2F2"/>
<path d="M12.0266 12.6409L12.6414 12.0261L10.4382 9.82283V7.0835H9.56315V10.1774L12.0266 12.6409ZM10.0017 15.5418C9.23517 15.5418 8.51471 15.3964 7.84028 15.1055C7.16585 14.8146 6.57921 14.4198 6.08036 13.9212C5.58151 13.4225 5.18655 12.8361 4.89546 12.162C4.60448 11.4879 4.45898 10.7676 4.45898 10.0012C4.45898 9.23468 4.60443 8.51422 4.89532 7.83979C5.18621 7.16536 5.58098 6.57872 6.07963 6.07987C6.57828 5.58102 7.16468 5.18606 7.83882 4.89498C8.51296 4.60399 9.23323 4.4585 9.99963 4.4585C10.7661 4.4585 11.4866 4.60394 12.161 4.89483C12.8355 5.18572 13.4221 5.58049 13.9209 6.07914C14.4198 6.5778 14.8148 7.16419 15.1058 7.83833C15.3968 8.51247 15.5423 9.23274 15.5423 9.99914C15.5423 10.7656 15.3969 11.4861 15.106 12.1605C14.8151 12.835 14.4203 13.4216 13.9217 13.9205C13.423 14.4193 12.8366 14.8143 12.1625 15.1054C11.4883 15.3963 10.7681 15.5418 10.0017 15.5418ZM10.0007 14.6668C11.2937 14.6668 12.3947 14.2123 13.3038 13.3033C14.2128 12.3943 14.6673 11.2932 14.6673 10.0002C14.6673 8.70711 14.2128 7.60607 13.3038 6.69704C12.3947 5.78801 11.2937 5.3335 10.0007 5.3335C8.7076 5.3335 7.60655 5.78801 6.69753 6.69704C5.7885 7.60607 5.33398 8.70711 5.33398 10.0002C5.33398 11.2932 5.7885 12.3943 6.69753 13.3033C7.60655 14.2123 8.7076 14.6668 10.0007 14.6668Z" fill="#515151"/>
</svg>