<svg xmlns="http://www.w3.org/2000/svg" width="12" height="12" viewBox="0 0 12 12" fill="none">
  <path d="M4.52888 8.75C4.27629 8.75 4.0625 8.6625 3.8875 8.4875C3.7125 8.3125 3.625 8.09871 3.625 7.84613V2.15387C3.625 1.90129 3.7125 1.6875 3.8875 1.5125C4.0625 1.3375 4.27629 1.25 4.52888 1.25H8.72113C8.97371 1.25 9.1875 1.3375 9.3625 1.5125C9.5375 1.6875 9.625 1.90129 9.625 2.15387V7.84613C9.625 8.09871 9.5375 8.3125 9.3625 8.4875C9.1875 8.6625 8.97371 8.75 8.72113 8.75H4.52888ZM4.52888 8H8.72113C8.75962 8 8.79488 7.98396 8.82688 7.95188C8.85896 7.91988 8.875 7.88462 8.875 7.84613V2.15387C8.875 2.11537 8.85896 2.08012 8.82688 2.04812C8.79488 2.01604 8.75962 2 8.72113 2H4.52888C4.49038 2 4.45513 2.01604 4.42313 2.04812C4.39104 2.08012 4.375 2.11537 4.375 2.15387V7.84613C4.375 7.88462 4.39104 7.91988 4.42313 7.95188C4.45513 7.98396 4.49038 8 4.52888 8ZM2.77887 10.5C2.52629 10.5 2.3125 10.4125 2.1375 10.2375C1.9625 10.0625 1.875 9.84871 1.875 9.59613V3.15387H2.625V9.59613C2.625 9.63463 2.64104 9.66988 2.67313 9.70188C2.70513 9.73396 2.74037 9.75 2.77887 9.75H7.72113V10.5H2.77887Z" fill="#515151"/>
</svg>