<svg xmlns="http://www.w3.org/2000/svg" width="24" height="24" viewBox="0 0 24 24" fill="none">
  <mask id="mask0_47_7387" style="mask-type:alpha" maskUnits="userSpaceOnUse" x="0" y="0" width="24" height="24">
    <rect width="24" height="24" fill="#D9D9D9"/>
  </mask>
  <g mask="url(#mask0_47_7387)">
    <path d="M11.2498 22.25V20.5192C9.16647 20.3051 7.41264 19.4858 5.9883 18.0615C4.56397 16.6371 3.74472 14.8833 3.53055 12.8H1.7998V11.3H3.53055C3.74472 9.21664 4.56397 7.46281 5.9883 6.03848C7.41264 4.61414 9.16647 3.79489 11.2498 3.58073V1.84998H12.7498V3.58073C14.8331 3.79489 16.587 4.61414 18.0113 6.03848C19.4356 7.46281 20.2549 9.21664 20.4691 11.3H22.1998V12.8H20.4691C20.2549 14.8833 19.4356 16.6371 18.0113 18.0615C16.587 19.4858 14.8331 20.3051 12.7498 20.5192V22.25H11.2498ZM11.9998 19.05C13.9331 19.05 15.5831 18.3666 16.9498 17C18.3165 15.6333 18.9998 13.9833 18.9998 12.05C18.9998 10.1166 18.3165 8.46664 16.9498 7.09998C15.5831 5.73331 13.9331 5.04998 11.9998 5.04998C10.0665 5.04998 8.41647 5.73331 7.0498 7.09998C5.68314 8.46664 4.9998 10.1166 4.9998 12.05C4.9998 13.9833 5.68314 15.6333 7.0498 17C8.41647 18.3666 10.0665 19.05 11.9998 19.05Z" fill="#515151"/>
  </g>
</svg>