<svg xmlns="http://www.w3.org/2000/svg" width="21" height="20" viewBox="0 0 21 20" fill="none">
  <path d="M10.5 13.1571L6.94229 9.59937L7.82063 8.69563L9.875 10.75V3.75H11.125V10.75L13.1794 8.69563L14.0577 9.59937L10.5 13.1571ZM5.75646 16.25C5.33549 16.25 4.97917 16.1042 4.6875 15.8125C4.39583 15.5208 4.25 15.1645 4.25 14.7435V12.484H5.5V14.7435C5.5 14.8077 5.52674 14.8665 5.58021 14.9198C5.63354 14.9733 5.69229 15 5.75646 15H15.2435C15.3077 15 15.3665 14.9733 15.4198 14.9198C15.4733 14.8665 15.5 14.8077 15.5 14.7435V12.484H16.75V14.7435C16.75 15.1645 16.6042 15.5208 16.3125 15.8125C16.0208 16.1042 15.6645 16.25 15.2435 16.25H5.75646Z" fill="white"/>
</svg>