<svg xmlns="http://www.w3.org/2000/svg" width="16" height="16" viewBox="0 0 16 16" fill="none">
  <path d="M3.3335 12.6673H4.1745L10.9988 5.84298L10.1578 5.00198L3.3335 11.8263V12.6673ZM2.3335 13.6673V11.411L11.1272 2.62115C11.2279 2.5296 11.3392 2.45887 11.461 2.40898C11.5829 2.35898 11.7107 2.33398 11.8443 2.33398C11.978 2.33398 12.1074 2.35771 12.2327 2.40515C12.358 2.4526 12.4689 2.52804 12.5655 2.63148L13.3797 3.45582C13.4831 3.55237 13.5568 3.66348 13.6008 3.78915C13.6448 3.91482 13.6668 4.04048 13.6668 4.16615C13.6668 4.30026 13.6439 4.42821 13.5982 4.54998C13.5524 4.67187 13.4796 4.78321 13.3797 4.88398L4.58983 13.6673H2.3335ZM10.571 5.42982L10.1578 5.00198L10.9988 5.84298L10.571 5.42982Z" fill="#18171A"/>
</svg>