<svg xmlns="http://www.w3.org/2000/svg" width="24" height="24" viewBox="0 0 24 24" fill="none">
<rect width="24" height="24" rx="12" fill="white"/>
<path d="M6.93931 16.9343C6.60696 16.9343 6.32566 16.8192 6.09539 16.5889C5.86513 16.3587 5.75 16.0774 5.75 15.745V8.25523C5.75 7.92288 5.86513 7.64158 6.09539 7.41131C6.32566 7.18105 6.60696 7.06592 6.93931 7.06592H17.0607C17.393 7.06592 17.6743 7.18105 17.9046 7.41131C18.1349 7.64158 18.25 7.92288 18.25 8.25523V15.745C18.25 16.0774 18.1349 16.3587 17.9046 16.5889C17.6743 16.8192 17.393 16.9343 17.0607 16.9343H6.93931ZM12 12.3671L6.73684 9.00161V15.745C6.73684 15.8041 6.75581 15.8526 6.79375 15.8906C6.83169 15.9285 6.88021 15.9475 6.93931 15.9475H17.0607C17.1198 15.9475 17.1683 15.9285 17.2063 15.8906C17.2442 15.8526 17.2632 15.8041 17.2632 15.745V9.00161L12 12.3671ZM12 11.3422L17.162 8.05276H6.83799L12 11.3422ZM6.73684 9.00161V8.05276V15.745C6.73684 15.8041 6.75581 15.8526 6.79375 15.8906C6.83169 15.9285 6.88021 15.9475 6.93931 15.9475H6.73684V9.00161Z" fill="#18171A"/>
</svg>