<svg xmlns="http://www.w3.org/2000/svg" width="20" height="20" viewBox="0 0 20 20" fill="none">
<rect width="20" height="20" rx="10" fill="#F2F2F2"/>
<path d="M5.89773 14C5.6283 14 5.40026 13.9067 5.21359 13.72C5.02693 13.5333 4.93359 13.3053 4.93359 13.0359V6.96413C4.93359 6.69471 5.02693 6.46667 5.21359 6.28C5.40026 6.09333 5.6283 6 5.89773 6H14.1028C14.3722 6 14.6003 6.09333 14.7869 6.28C14.9736 6.46667 15.0669 6.69471 15.0669 6.96413V13.0359C15.0669 13.3053 14.9736 13.5333 14.7869 13.72C14.6003 13.9067 14.3722 14 14.1028 14H5.89773ZM10.0003 10.2975L5.73359 7.5692V13.0359C5.73359 13.0838 5.74897 13.1231 5.77973 13.1539C5.81048 13.1846 5.84982 13.2 5.89773 13.2H14.1028C14.1507 13.2 14.19 13.1846 14.2208 13.1539C14.2515 13.1231 14.2669 13.0838 14.2669 13.0359V7.5692L10.0003 10.2975ZM10.0003 9.46667L14.1849 6.8H5.81559L10.0003 9.46667ZM5.73359 7.5692V6.8V13.0359C5.73359 13.0838 5.74897 13.1231 5.77973 13.1539C5.81048 13.1846 5.84982 13.2 5.89773 13.2H5.73359V7.5692Z" fill="#515151"/>
</svg>