<svg width="506" height="198" viewBox="0 0 506 198" fill="none" xmlns="http://www.w3.org/2000/svg">
<path d="M3.18257 124.375C1.75006 118.276 -0.428938 103.454 2.31517 92.9535C2.07862 92.4181 1.58972 90.924 1.52664 89.2315C2.48603 88.0039 4.98044 85.1255 7.28297 83.433C6.7967 83.002 6.32884 81.9598 8.3475 81.2389C9.93771 79.1494 13.607 74.6412 15.5626 73.3247C20.8853 70.6214 38.0754 64.5408 64.2548 61.8452C80.6039 60.3956 113.554 57.5277 114.564 57.6531C115.573 57.7784 116.062 58.2538 116.18 58.4758H126.983C128.166 57.4441 131.754 55.5217 136.643 56.0859L171.535 33.9889C180.761 28.5168 201.003 17.0321 208.163 14.8694C208.005 14.5952 207.903 13.9291 208.754 13.459C209.819 12.8713 218.848 9.58024 221.608 9.14927C226.155 6.66792 240.99 1.56418 263.952 1L267.737 1.9403C290.539 2.03172 336.553 2.27724 338.193 2.52799C338.732 2.34515 340.977 2.03433 345.645 2.25373C351.48 2.52799 402.814 5.81904 404.548 6.09329C405.968 4.86568 411.164 2.77873 420.595 4.25187L420.004 7.81718C422.277 7.93471 426.259 8.95337 434.355 11.1474C436.983 11.8594 441.7 13.6549 444.908 13.9683C450.033 14.1642 460.361 14.3444 460.298 15.5355C460.324 15.6661 459.841 16.3661 457.696 18.1213C456.854 18.8104 456.578 19.1008 455.843 20.0019C454.804 21.2759 454.37 22.0632 454.542 22.2351C461.941 29.64 477.26 44.7945 479.341 46.1736C483.334 50.2482 479.84 46.7378 480.471 47.4273C481.101 48.1169 480.053 46.8396 481.943 48.7986C483.481 50.3919 486.809 53.884 487.818 55.1064C489.973 55.8117 494.647 57.7706 496.098 59.9647C497.911 61.0356 500.995 63.5456 498.818 65.0188C499.173 66.1027 499.851 68.4587 499.725 69.2109C499.475 69.6811 498.842 70.7154 498.306 71.0915C498.844 77.7912 499.386 93.5099 497.241 102.787C497.451 103.153 497.746 104.127 497.241 105.099V111.838C497.373 112.909 498.03 115.388 499.607 116.735C500.395 117.427 501.972 119.713 501.972 123.317C502.932 123.722 504.858 124.924 504.89 126.491C505.087 129.103 505.158 135.095 503.865 138.166C504.049 138.689 504.054 140.399 502.603 143.064C500.79 146.394 499.922 147.883 496.61 149.097C490.644 150.86 476.755 154.488 468.933 154.896C468.538 155.183 467.143 155.773 464.714 155.836C464.753 156.437 464.162 157.63 461.481 157.599C458.8 157.568 456.395 157.586 455.527 157.599C454.936 168.569 447.618 191.685 423.079 196.387C409.608 198.776 380.672 195.462 372.692 163.084H336.222H333.605C332.685 163.15 333.605 163.084 330.308 163.084H312.092H136.643C134.987 174.511 123.734 196.943 91.972 195.25C82.4175 194.362 61.7805 186.169 56.1977 163.633C54.1738 163.75 49.0772 162.818 47.2478 163.633L44.8427 162.692L41.5055 161.948C38.1805 161.987 31.6015 161.846 31.8854 160.969C26.0765 160.851 12.6608 159.887 5.46933 156.972C4.40481 154.086 2.91447 146.809 5.46933 140.791C3.51113 136.873 0.312284 128.105 3.18257 124.375Z" stroke="#767879" stroke-width="1.63867" stroke-linecap="square" stroke-dasharray="4 4"/>
</svg>
