<svg width="20" height="20" viewBox="0 0 20 20" fill="none" xmlns="http://www.w3.org/2000/svg">
<g id="error">
<path id="Vector" d="M9.99967 13.9425C10.1904 13.9425 10.3502 13.8779 10.4793 13.7489C10.6083 13.6199 10.6728 13.46 10.6728 13.2693C10.6728 13.0786 10.6083 12.9188 10.4793 12.7897C10.3502 12.6609 10.1904 12.5964 9.99967 12.5964C9.80898 12.5964 9.64912 12.6609 9.52009 12.7897C9.39106 12.9188 9.32655 13.0786 9.32655 13.2693C9.32655 13.46 9.39106 13.6199 9.52009 13.7489C9.64912 13.8779 9.80898 13.9425 9.99967 13.9425ZM9.37467 10.8977H10.6247V5.89766H9.37467V10.8977ZM10.0011 17.9168C8.90613 17.9168 7.8769 17.7091 6.91342 17.2935C5.94995 16.8779 5.1119 16.314 4.39926 15.6016C3.68662 14.8893 3.12238 14.0516 2.70655 13.0885C2.29085 12.1254 2.08301 11.0965 2.08301 10.0016C2.08301 8.90662 2.29079 7.87738 2.70634 6.91391C3.1219 5.95044 3.68586 5.11238 4.39822 4.39975C5.11058 3.68711 5.94829 3.12287 6.91134 2.70704C7.8744 2.29134 8.90335 2.0835 9.99822 2.0835C11.0932 2.0835 12.1225 2.29127 13.0859 2.70683C14.0494 3.12238 14.8875 3.68634 15.6001 4.3987C16.3127 5.11107 16.877 5.94877 17.2928 6.91183C17.7085 7.87488 17.9163 8.90384 17.9163 9.9987C17.9163 11.0937 17.7086 12.1229 17.293 13.0864C16.8775 14.0499 16.3135 14.8879 15.6011 15.6006C14.8888 16.3132 14.0511 16.8775 13.088 17.2933C12.125 17.709 11.096 17.9168 10.0011 17.9168ZM9.99967 16.6668C11.8608 16.6668 13.4372 16.021 14.7288 14.7293C16.0205 13.4377 16.6663 11.8613 16.6663 10.0002C16.6663 8.13905 16.0205 6.56266 14.7288 5.271C13.4372 3.97933 11.8608 3.3335 9.99967 3.3335C8.13856 3.3335 6.56217 3.97933 5.27051 5.271C3.97884 6.56266 3.33301 8.13905 3.33301 10.0002C3.33301 11.8613 3.97884 13.4377 5.27051 14.7293C6.56217 16.021 8.13856 16.6668 9.99967 16.6668Z" fill="#19458B"/>
</g>
</svg>
