<svg width="16" height="16" viewBox="0 0 16 16" fill="none" xmlns="http://www.w3.org/2000/svg">
<g id="Group 1321316621">
<path id="Vector" d="M0.300781 15.0768V13.8926H15.6955V15.0768H0.300781ZM7.99815 3.66118L7.40604 2.97656H8.59025L8.39289 4.05592L7.99815 3.66118ZM4.38631 10.5374H11.61C11.3074 9.82683 10.8324 9.25446 10.1852 8.82025C9.53795 8.38604 8.80894 8.16893 7.99815 8.16893C7.18736 8.16893 6.45835 8.38604 5.81111 8.82025C5.16387 9.25446 4.68894 9.82683 4.38631 10.5374ZM2.91216 11.7216C3.00322 10.3795 3.53558 9.25446 4.50927 8.34656C5.48295 7.43867 6.64591 6.98472 7.99815 6.98472C9.35039 6.98472 10.5133 7.43867 11.487 8.34656C12.4607 9.25446 12.9931 10.3795 13.0841 11.7216H2.91216Z" fill="#767879"/>
<path id="Subtract" fill-rule="evenodd" clip-rule="evenodd" d="M8.44836 0.108179L8.44836 2.83298L9.80356 1.48501L10.6304 2.31182L7.85626 5.08594L5.22429 2.45397L6.05149 1.62678L7.26415 2.83298L7.26415 0.108179L8.44836 0.108179Z" fill="#767879"/>
<rect id="Rectangle 3468381" width="1.19038" height="2.16101" transform="matrix(0.760431 -0.649419 -0.649419 -0.760431 3.875 7.26172)" fill="#767879"/>
<rect id="Rectangle 3468382" width="1.19038" height="2.16101" transform="matrix(0.436934 -0.899493 -0.899493 -0.436934 2.04639 10.0195)" fill="#767879"/>
<rect id="Rectangle 3468379" x="12.063" y="7.26172" width="1.19038" height="2.16101" transform="rotate(-139.502 12.063 7.26172)" fill="#767879"/>
<rect id="Rectangle 3468380" x="13.8916" y="10.0195" width="1.19038" height="2.16101" transform="rotate(-115.908 13.8916 10.0195)" fill="#767879"/>
</g>
</svg>
