<svg width="60" height="60" viewBox="0 0 60 60" fill="none" xmlns="http://www.w3.org/2000/svg">
<g id="Frame 1321320583">
<path id="Vector" d="M30 40.9554C30.5299 40.9554 30.9742 40.7761 31.3327 40.4176C31.6913 40.059 31.8706 39.6148 31.8706 39.0848C31.8706 38.5549 31.6913 38.1107 31.3327 37.7521C30.9742 37.3939 30.5299 37.2148 30 37.2148C29.4701 37.2148 29.0258 37.3939 28.6673 37.7521C28.3087 38.1107 28.1294 38.5549 28.1294 39.0848C28.1294 39.6148 28.3087 40.059 28.6673 40.4176C29.0258 40.7761 29.4701 40.9554 30 40.9554ZM28.2632 32.4941H31.7368V18.5994H28.2632V32.4941ZM30.0041 52C26.9611 52 24.1009 51.4226 21.4235 50.2678C18.746 49.113 16.4171 47.5458 14.4367 45.5662C12.4564 43.5865 10.8884 41.2586 9.73279 38.5823C8.5776 35.906 8 33.0466 8 30.0041C8 26.9611 8.5774 24.1009 9.73221 21.4235C10.887 18.746 12.4542 16.4171 14.4338 14.4367C16.4135 12.4564 18.7414 10.8884 21.4177 9.73279C24.094 8.5776 26.9534 8 29.9959 8C33.0389 8 35.8991 8.5774 38.5765 9.73221C41.254 10.887 43.5829 12.4542 45.5633 14.4338C47.5437 16.4135 49.1116 18.7414 50.2672 21.4177C51.4224 24.094 52 26.9534 52 29.9959C52 33.0389 51.4226 35.8991 50.2678 38.5765C49.113 41.254 47.5458 43.5829 45.5662 45.5633C43.5865 47.5437 41.2586 49.1116 38.5823 50.2672C35.906 51.4224 33.0466 52 30.0041 52ZM30 48.5263C35.1719 48.5263 39.5526 46.7316 43.1421 43.1421C46.7316 39.5526 48.5263 35.1719 48.5263 30C48.5263 24.8281 46.7316 20.4474 43.1421 16.8579C39.5526 13.2684 35.1719 11.4737 30 11.4737C24.8281 11.4737 20.4474 13.2684 16.8579 16.8579C13.2684 20.4474 11.4737 24.8281 11.4737 30C11.4737 35.1719 13.2684 39.5526 16.8579 43.1421C20.4474 46.7316 24.8281 48.5263 30 48.5263Z" fill="white"/>
</g>
</svg>
