<svg width="9" height="33" viewBox="0 0 9 33" fill="none" xmlns="http://www.w3.org/2000/svg">
<path d="M4.616 0.847998H4.664C6.056 0.847998 8.6 3.536 8.6 5.456C8.6 6.368 8.216 7.664 7.688 9.104C6.056 13.52 5 17.6 5 21.92H4.184C4.184 17.6 3.128 13.52 1.496 9.104C0.968 7.664 0.584 6.368 0.584 5.456C0.584 3.056 3.656 0.847998 4.616 0.847998ZM4.712 32.672H4.664C2.936 32.672 1.448 31.184 1.448 29.12C1.448 27.104 2.936 25.616 4.76 25.616C6.584 25.616 8.024 27.104 8.024 29.168C8.024 31.136 6.68 32.672 4.712 32.672Z" fill="#767879"/>
</svg>
