<svg width="40" height="40" viewBox="0 0 40 40" fill="none" xmlns="http://www.w3.org/2000/svg">
<path id="Vector" d="M20 29.9595C20.4818 29.9595 20.8856 29.7965 21.2116 29.4705C21.5375 29.1446 21.7005 28.7407 21.7005 28.2589C21.7005 27.7772 21.5375 27.3733 21.2116 27.0474C20.8856 26.7218 20.4818 26.5589 20 26.5589C19.5182 26.5589 19.1144 26.7218 18.7884 27.0474C18.4625 27.3733 18.2995 27.7772 18.2995 28.2589C18.2995 28.7407 18.4625 29.1446 18.7884 29.4705C19.1144 29.7965 19.5182 29.9595 20 29.9595ZM18.4211 22.2674H21.5789V9.63579H18.4211V22.2674ZM20.0037 40C17.2374 40 14.6372 39.4751 12.2032 38.4253C9.76912 37.3754 7.65193 35.9507 5.85158 34.1511C4.05123 32.3514 2.62579 30.2351 1.57526 27.8021C0.525087 25.3691 0 22.7696 0 20.0037C0 17.2374 0.524912 14.6372 1.57474 12.2032C2.62456 9.76912 4.0493 7.65193 5.84895 5.85158C7.6486 4.05123 9.76491 2.62579 12.1979 1.57526C14.6309 0.525087 17.2304 0 19.9963 0C22.7626 0 25.3628 0.524911 27.7968 1.57474C30.2309 2.62456 32.3481 4.0493 34.1484 5.84895C35.9488 7.6486 37.3742 9.76491 38.4247 12.1979C39.4749 14.6309 40 17.2304 40 19.9963C40 22.7626 39.4751 25.3628 38.4253 27.7968C37.3754 30.2309 35.9507 32.3481 34.1511 34.1484C32.3514 35.9488 30.2351 37.3742 27.8021 38.4247C25.3691 39.4749 22.7696 40 20.0037 40ZM20 36.8421C24.7018 36.8421 28.6842 35.2105 31.9474 31.9474C35.2105 28.6842 36.8421 24.7018 36.8421 20C36.8421 15.2982 35.2105 11.3158 31.9474 8.05263C28.6842 4.78947 24.7018 3.15789 20 3.15789C15.2982 3.15789 11.3158 4.78947 8.05263 8.05263C4.78947 11.3158 3.15789 15.2982 3.15789 20C3.15789 24.7018 4.78947 28.6842 8.05263 31.9474C11.3158 35.2105 15.2982 36.8421 20 36.8421Z" fill="white"/>
</svg>
