<svg width="134" height="21" viewBox="0 0 134 21" fill="none" xmlns="http://www.w3.org/2000/svg">
<path d="M7.64 3.056C8.728 3.056 9.688 3.224 10.52 3.56C11.368 3.88 12.168 4.36 12.92 5L11.216 6.776C10.624 6.312 10.064 5.976 9.536 5.768C9.024 5.56 8.424 5.456 7.736 5.456C6.456 5.456 5.408 5.968 4.592 6.992C3.776 8.016 3.368 9.584 3.368 11.696C3.368 13.904 3.688 15.496 4.328 16.472C4.984 17.448 5.976 17.936 7.304 17.936C8.312 17.936 9.192 17.72 9.944 17.288V12.968H7.448L7.112 10.616H13.064V18.728C11.272 19.816 9.368 20.36 7.352 20.36C4.984 20.36 3.168 19.624 1.904 18.152C0.656 16.68 0.032 14.528 0.032 11.696C0.032 9.888 0.368 8.336 1.04 7.04C1.728 5.728 2.648 4.736 3.8 4.064C4.952 3.392 6.232 3.056 7.64 3.056ZM22.4167 6.968C22.8807 6.968 23.3047 7.024 23.6887 7.136L23.1607 10.112C22.7767 10.016 22.4007 9.968 22.0327 9.968C21.2807 9.968 20.6887 10.24 20.2567 10.784C19.8247 11.312 19.4807 12.128 19.2247 13.232V20H16.1527V7.304H18.8167L19.1047 9.8C19.4087 8.888 19.8487 8.192 20.4247 7.712C21.0007 7.216 21.6647 6.968 22.4167 6.968ZM34.1383 16.64C34.1383 17.136 34.2103 17.504 34.3543 17.744C34.5143 17.968 34.7623 18.144 35.0983 18.272L34.4503 20.312C33.7303 20.248 33.1383 20.072 32.6743 19.784C32.2263 19.496 31.8823 19.056 31.6423 18.464C31.2103 19.104 30.6663 19.584 30.0103 19.904C29.3703 20.208 28.6503 20.36 27.8503 20.36C26.5863 20.36 25.5863 20 24.8503 19.28C24.1143 18.56 23.7463 17.616 23.7463 16.448C23.7463 15.072 24.2423 14.024 25.2343 13.304C26.2423 12.568 27.6743 12.2 29.5303 12.2H31.1143V11.48C31.1143 10.664 30.9223 10.096 30.5383 9.776C30.1703 9.44 29.5703 9.272 28.7383 9.272C27.8103 9.272 26.6903 9.496 25.3783 9.944L24.6583 7.856C26.2423 7.248 27.7783 6.944 29.2663 6.944C32.5143 6.944 34.1383 8.4 34.1383 11.312V16.64ZM28.6663 18.128C29.7063 18.128 30.5223 17.608 31.1143 16.568V14H29.8423C27.8583 14 26.8663 14.736 26.8663 16.208C26.8663 16.816 27.0183 17.288 27.3223 17.624C27.6263 17.96 28.0743 18.128 28.6663 18.128ZM44.6238 6.944C45.7598 6.944 46.6398 7.288 47.2638 7.976C47.9038 8.648 48.2238 9.592 48.2238 10.808V20H45.1518V11.288C45.1518 10.536 45.0158 10.008 44.7438 9.704C44.4878 9.4 44.1038 9.248 43.5918 9.248C43.0638 9.248 42.5838 9.416 42.1518 9.752C41.7358 10.072 41.3278 10.544 40.9278 11.168V20H37.8558V7.304H40.5198L40.7598 8.96C41.7998 7.616 43.0878 6.944 44.6238 6.944ZM62.4811 2.216V20H59.7691L59.5531 18.392C59.1531 19 58.6411 19.48 58.0171 19.832C57.4091 20.184 56.7131 20.36 55.9291 20.36C54.3771 20.36 53.1851 19.76 52.3531 18.56C51.5211 17.36 51.1051 15.728 51.1051 13.664C51.1051 12.368 51.3131 11.216 51.7291 10.208C52.1451 9.184 52.7371 8.384 53.5051 7.808C54.2891 7.232 55.1931 6.944 56.2171 6.944C57.4331 6.944 58.4971 7.4 59.4091 8.312V1.88L62.4811 2.216ZM56.7931 18.032C57.3371 18.032 57.8171 17.904 58.2331 17.648C58.6491 17.376 59.0411 16.96 59.4091 16.4V10.592C59.0411 10.144 58.6651 9.808 58.2811 9.584C57.9131 9.36 57.4811 9.248 56.9851 9.248C56.1691 9.248 55.5211 9.616 55.0411 10.352C54.5771 11.072 54.3451 12.168 54.3451 13.64C54.3451 15.208 54.5531 16.336 54.9691 17.024C55.3851 17.696 55.9931 18.032 56.7931 18.032ZM83.9523 3.416L79.0323 20H75.2643L70.2003 3.416H73.6083L77.2083 17.192L80.7123 3.416H83.9523ZM88.7872 7.304V20H85.7152V7.304H88.7872ZM87.2272 0.871999C87.8032 0.871999 88.2672 1.056 88.6192 1.424C88.9872 1.776 89.1712 2.216 89.1712 2.744C89.1712 3.272 88.9872 3.712 88.6192 4.064C88.2672 4.416 87.8032 4.592 87.2272 4.592C86.6672 4.592 86.2032 4.416 85.8352 4.064C85.4832 3.712 85.3072 3.272 85.3072 2.744C85.3072 2.216 85.4832 1.776 85.8352 1.424C86.2032 1.056 86.6672 0.871999 87.2272 0.871999ZM99.7606 19.4C99.3126 19.72 98.8086 19.96 98.2486 20.12C97.7046 20.28 97.1446 20.36 96.5686 20.36C95.3206 20.344 94.3686 19.992 93.7126 19.304C93.0726 18.6 92.7526 17.568 92.7526 16.208V9.512H90.7606V7.304H92.7526V4.496L95.8246 4.136V7.304H98.7766L98.4646 9.512H95.8246V16.136C95.8246 16.76 95.9286 17.208 96.1366 17.48C96.3606 17.752 96.7046 17.888 97.1686 17.888C97.6326 17.888 98.1366 17.736 98.6806 17.432L99.7606 19.4ZM110.638 16.64C110.638 17.136 110.71 17.504 110.854 17.744C111.014 17.968 111.262 18.144 111.598 18.272L110.95 20.312C110.23 20.248 109.638 20.072 109.174 19.784C108.726 19.496 108.382 19.056 108.142 18.464C107.71 19.104 107.166 19.584 106.51 19.904C105.87 20.208 105.15 20.36 104.35 20.36C103.086 20.36 102.086 20 101.35 19.28C100.614 18.56 100.246 17.616 100.246 16.448C100.246 15.072 100.742 14.024 101.734 13.304C102.742 12.568 104.174 12.2 106.03 12.2H107.614V11.48C107.614 10.664 107.422 10.096 107.038 9.776C106.67 9.44 106.07 9.272 105.238 9.272C104.31 9.272 103.19 9.496 101.878 9.944L101.158 7.856C102.742 7.248 104.278 6.944 105.766 6.944C109.014 6.944 110.638 8.4 110.638 11.312V16.64ZM105.166 18.128C106.206 18.128 107.022 17.608 107.614 16.568V14H106.342C104.358 14 103.366 14.736 103.366 16.208C103.366 16.816 103.518 17.288 103.822 17.624C104.126 17.96 104.574 18.128 105.166 18.128ZM120.62 6.968C121.084 6.968 121.508 7.024 121.892 7.136L121.364 10.112C120.98 10.016 120.604 9.968 120.236 9.968C119.484 9.968 118.892 10.24 118.46 10.784C118.028 11.312 117.684 12.128 117.428 13.232V20H114.356V7.304H117.02L117.308 9.8C117.612 8.888 118.052 8.192 118.628 7.712C119.204 7.216 119.868 6.968 120.62 6.968ZM132.341 16.64C132.341 17.136 132.413 17.504 132.557 17.744C132.717 17.968 132.965 18.144 133.301 18.272L132.653 20.312C131.933 20.248 131.341 20.072 130.877 19.784C130.429 19.496 130.085 19.056 129.845 18.464C129.413 19.104 128.869 19.584 128.213 19.904C127.573 20.208 126.853 20.36 126.053 20.36C124.789 20.36 123.789 20 123.053 19.28C122.317 18.56 121.949 17.616 121.949 16.448C121.949 15.072 122.445 14.024 123.437 13.304C124.445 12.568 125.877 12.2 127.733 12.2H129.317V11.48C129.317 10.664 129.125 10.096 128.741 9.776C128.373 9.44 127.773 9.272 126.941 9.272C126.013 9.272 124.893 9.496 123.581 9.944L122.861 7.856C124.445 7.248 125.981 6.944 127.469 6.944C130.717 6.944 132.341 8.4 132.341 11.312V16.64ZM126.869 18.128C127.909 18.128 128.725 17.608 129.317 16.568V14H128.045C126.061 14 125.069 14.736 125.069 16.208C125.069 16.816 125.221 17.288 125.525 17.624C125.829 17.96 126.277 18.128 126.869 18.128Z" fill="#18171A"/>
</svg>
