<svg xmlns="http://www.w3.org/2000/svg" width="12" height="12" viewBox="0 0 12 12" fill="none">
<rect width="12" height="12" fill="#0F0F0F"/>
<g id="Dev / Variants Page / Desktop_Mobile">
<rect width="18170" height="19512" transform="translate(-603 -16480)" fill="url(#paint0_linear_3490_15019)" fill-opacity="0.6"/>
<g id="Frame 1321319216">
<g id="Variants &amp; Pricing / Grand Vitara / Mobile" clip-path="url(#clip0_3490_15019)">
<rect width="360" height="5895" transform="translate(-92 -2943)" fill="#18171A"/>
<g id="Frame 1321319212">
<g id="Frame 1321318622" clip-path="url(#clip1_3490_15019)">
<rect width="360" height="1676" transform="translate(-92 -542)" fill="white"/>
<g id="Group 1321318485">
<rect id="Rectangle 3468292" x="-92" y="-40" width="360" height="72" fill="#F2F2F2" fill-opacity="0.3"/>
</g>
<g id="Group 1321318532">
<circle id="Ellipse 613" cx="6" cy="6" r="6" fill="#767879"/>
<path id="i" d="M6.87 4.73V10H5.95V4.73H6.87ZM6.4 2.2C6.59333 2.2 6.75 2.26 6.87 2.38C6.99 2.5 7.05 2.65 7.05 2.83C7.05 3.01 6.99 3.16 6.87 3.28C6.75 3.39333 6.59333 3.45 6.4 3.45C6.21333 3.45 6.06 3.39333 5.94 3.28C5.82 3.16 5.76 3.01 5.76 2.83C5.76 2.65 5.82 2.5 5.94 2.38C6.06 2.26 6.21333 2.2 6.4 2.2Z" fill="#F2F2F2"/>
</g>
</g>
</g>
</g>
</g>
</g>
<defs>
<linearGradient id="paint0_linear_3490_15019" x1="18577.9" y1="-4916.11" x2="-8436.79" y2="10947.8" gradientUnits="userSpaceOnUse">
<stop stop-color="#384F6E"/>
<stop offset="1" stop-color="#5B5B5B"/>
</linearGradient>
<clipPath id="clip0_3490_15019">
<rect width="360" height="5895" fill="white" transform="translate(-92 -2943)"/>
</clipPath>
<clipPath id="clip1_3490_15019">
<rect width="360" height="1676" fill="white" transform="translate(-92 -542)"/>
</clipPath>
</defs>
</svg>