<svg width="21" height="20" viewBox="0 0 21 20" fill="none" xmlns="http://www.w3.org/2000/svg">
<g id="location_searching" opacity="0.5">
<mask id="mask0_2163_2711" style="mask-type:alpha" maskUnits="userSpaceOnUse" x="0" y="0" width="21" height="20">
<rect id="Bounding box" x="0.200012" width="20" height="20" fill="#D9D9D9"/>
</mask>
<g mask="url(#mask0_2163_2711)">
<path id="location_searching_2" d="M9.57501 18.5417V17.0995C7.8389 16.921 6.37737 16.2383 5.19043 15.0513C4.00348 13.8644 3.32078 12.4029 3.1423 10.6667H1.70001V9.41675H3.1423C3.32078 7.68064 4.00348 6.21911 5.19043 5.03216C6.37737 3.84522 7.8389 3.16251 9.57501 2.98404V1.54175H10.825V2.98404C12.5611 3.16251 14.0227 3.84522 15.2096 5.03216C16.3965 6.21911 17.0792 7.68064 17.2577 9.41675H18.7V10.6667H17.2577C17.0792 12.4029 16.3965 13.8644 15.2096 15.0513C14.0227 16.2383 12.5611 16.921 10.825 17.0995V18.5417H9.57501ZM10.2 15.8751C11.8111 15.8751 13.1861 15.3056 14.325 14.1667C15.4639 13.0279 16.0333 11.6529 16.0333 10.0417C16.0333 8.43064 15.4639 7.05564 14.325 5.91675C13.1861 4.77786 11.8111 4.20841 10.2 4.20841C8.5889 4.20841 7.2139 4.77786 6.07501 5.91675C4.93612 7.05564 4.36668 8.43064 4.36668 10.0417C4.36668 11.6529 4.93612 13.0279 6.07501 14.1667C7.2139 15.3056 8.5889 15.8751 10.2 15.8751Z" fill="#767879"/>
</g>
</g>
</svg>
