<svg width="14" height="10" viewBox="0 0 14 10" fill="none" xmlns="http://www.w3.org/2000/svg">
<path id="Vector" d="M1.93931 9.93434C1.60696 9.93434 1.32566 9.81921 1.09539 9.58894C0.865132 9.35868 0.75 9.07737 0.75 8.74503V1.25523C0.75 0.92288 0.865132 0.641576 1.09539 0.411313C1.32566 0.18105 1.60696 0.065918 1.93931 0.065918H12.0607C12.393 0.065918 12.6743 0.18105 12.9046 0.411313C13.1349 0.641576 13.25 0.92288 13.25 1.25523V8.74503C13.25 9.07737 13.1349 9.35868 12.9046 9.58894C12.6743 9.81921 12.393 9.93434 12.0607 9.93434H1.93931ZM7 5.36707L1.73684 2.00161V8.74503C1.73684 8.80413 1.75581 8.85265 1.79375 8.89059C1.83169 8.92853 1.88021 8.9475 1.93931 8.9475H12.0607C12.1198 8.9475 12.1683 8.92853 12.2063 8.89059C12.2442 8.85265 12.2632 8.80413 12.2632 8.74503V2.00161L7 5.36707ZM7 4.34223L12.162 1.05276H1.83799L7 4.34223ZM1.73684 2.00161V1.05276V8.74503C1.73684 8.80413 1.75581 8.85265 1.79375 8.89059C1.83169 8.92853 1.88021 8.9475 1.93931 8.9475H1.73684V2.00161Z" fill="#515151"/>
</svg>
