<svg width="16" height="16" viewBox="0 0 16 16" fill="none" xmlns="http://www.w3.org/2000/svg">
<g id="Group 1321316621">
<path id="Vector" d="M4.37723 10.7405L4.37138 10.7543H4.38631H11.61H11.6249L11.6191 10.7405C11.3157 10.0282 10.8395 9.45435 10.1907 9.01908C9.54176 8.58374 8.81081 8.36609 7.99815 8.36609C7.18549 8.36609 6.45454 8.58374 5.80561 9.01908C5.1568 9.45435 4.68062 10.0282 4.37723 10.7405ZM0.31065 15.274V14.1095H15.6856V15.274H0.31065ZM7.41591 5.29938V3.19346H8.58039V5.29938H7.41591ZM2.92273 11.9187C3.01568 10.5837 3.54672 9.4646 4.516 8.56081C5.48782 7.65465 6.64837 7.20162 7.99815 7.20162C9.34793 7.20162 10.5085 7.65465 11.4803 8.56081C12.4496 9.4646 12.9806 10.5837 13.0736 11.9187H2.92273Z" fill="#18171A" stroke="#18171A" stroke-width="0.0197368"/>
<g id="Subtract">
<mask id="path-2-inside-1_8625_6741" fill="white">
<path fill-rule="evenodd" clip-rule="evenodd" d="M7.4076 5.29221V2.56741L6.0524 3.91538L5.22559 3.08857L7.9997 0.314453L10.6317 2.94642L9.80447 3.77361L8.59181 2.56741V5.29221H7.4076Z"/>
</mask>
<path fill-rule="evenodd" clip-rule="evenodd" d="M7.4076 5.29221V2.56741L6.0524 3.91538L5.22559 3.08857L7.9997 0.314453L10.6317 2.94642L9.80447 3.77361L8.59181 2.56741V5.29221H7.4076Z" fill="#18171A"/>
<path d="M7.4076 2.56741H7.42733V2.51994L7.39368 2.55342L7.4076 2.56741ZM7.4076 5.29221H7.38786V5.31195H7.4076V5.29221ZM6.0524 3.91538L6.03844 3.92934L6.05236 3.94326L6.06632 3.92938L6.0524 3.91538ZM5.22559 3.08857L5.21163 3.07461L5.19767 3.08857L5.21163 3.10252L5.22559 3.08857ZM7.9997 0.314453L8.01366 0.300497L7.9997 0.286541L7.98574 0.300497L7.9997 0.314453ZM10.6317 2.94642L10.6456 2.96037L10.6596 2.94642L10.6456 2.93246L10.6317 2.94642ZM9.80447 3.77361L9.79055 3.7876L9.80451 3.80149L9.81843 3.78757L9.80447 3.77361ZM8.59181 2.56741L8.60573 2.55342L8.57207 2.51994V2.56741H8.59181ZM8.59181 5.29221V5.31195H8.61154V5.29221H8.59181ZM7.38786 2.56741V5.29221H7.42733V2.56741H7.38786ZM6.06632 3.92938L7.42151 2.58141L7.39368 2.55342L6.03848 3.90139L6.06632 3.92938ZM5.21163 3.10252L6.03844 3.92934L6.06636 3.90143L5.23954 3.07461L5.21163 3.10252ZM7.98574 0.300497L5.21163 3.07461L5.23954 3.10252L8.01366 0.328409L7.98574 0.300497ZM10.6456 2.93246L8.01366 0.300497L7.98574 0.328409L10.6177 2.96037L10.6456 2.93246ZM9.81843 3.78757L10.6456 2.96037L10.6177 2.93246L9.79051 3.75965L9.81843 3.78757ZM8.57789 2.58141L9.79055 3.7876L9.81839 3.75962L8.60573 2.55342L8.57789 2.58141ZM8.61154 5.29221V2.56741H8.57207V5.29221H8.61154ZM7.4076 5.31195H8.59181V5.27247H7.4076V5.31195Z" fill="#18171A" mask="url(#path-2-inside-1_8625_6741)"/>
</g>
<rect id="Rectangle 3468381" x="0.0330364" y="-0.419564" width="0.595189" height="1.56582" transform="matrix(0.760431 -0.649419 -0.649419 -0.760431 3.61044 6.75354)" fill="#18171A" stroke="#18171A" stroke-width="0.595189"/>
<rect id="Rectangle 3468382" x="-0.137655" y="-0.397714" width="0.595189" height="1.56582" transform="matrix(0.436934 -0.899493 -0.899493 -0.436934 1.61114 9.53125)" fill="#18171A" stroke="#18171A" stroke-width="0.595189"/>
<rect id="Rectangle 3468379" x="12.03" y="7.05114" width="0.595189" height="1.56582" transform="rotate(-139.502 12.03 7.05114)" fill="#18171A" stroke="#18171A" stroke-width="0.595189"/>
<rect id="Rectangle 3468380" x="14.0293" y="9.82885" width="0.595189" height="1.56582" transform="rotate(-115.908 14.0293 9.82885)" fill="#18171A" stroke="#18171A" stroke-width="0.595189"/>
</g>
</svg>
