<svg width="50" height="50" viewBox="0 0 50 50" fill="none" xmlns="http://www.w3.org/2000/svg">
<g id="pause_circle">
<mask id="mask0_452_125417" style="mask-type:alpha" maskUnits="userSpaceOnUse" x="0" y="0" width="50" height="50">
<rect id="Bounding box" width="50" height="50" fill="#D9D9D9"/>
</mask>
<g mask="url(#mask0_452_125417)">
<path id="pause_circle_2" d="M19.3833 32.8802H22.5078V17.099H19.3833V32.8802ZM27.0755 32.8802H30.2V17.099H27.0755V32.8802ZM24.7953 44.9792C22.0578 44.9792 19.4847 44.4545 17.076 43.4053C14.6674 42.356 12.5722 40.932 10.7906 39.1333C9.00903 37.3346 7.59844 35.2193 6.55885 32.7876C5.51962 30.3559 5 27.7578 5 24.9933C5 22.2284 5.51944 19.6296 6.55833 17.1968C7.59722 14.764 9.00712 12.6479 10.788 10.8485C12.5689 9.04912 14.6632 7.62442 17.0708 6.57444C19.4785 5.52481 22.0509 5 24.788 5C27.5255 5 30.0986 5.52464 32.5073 6.57392C34.916 7.62319 37.0111 9.04719 38.7927 10.8459C40.5743 12.6446 41.9849 14.7598 43.0245 17.1915C44.0637 19.6233 44.5833 22.2214 44.5833 24.9859C44.5833 27.7508 44.0639 30.3496 43.025 32.7824C41.9861 35.2151 40.5762 37.3312 38.7953 39.1306C37.0144 40.9301 34.9201 42.3548 32.5125 43.4047C30.1049 44.4544 27.5325 44.9792 24.7953 44.9792ZM24.7917 41.8229C29.4444 41.8229 33.3854 40.1922 36.6146 36.9307C39.8438 33.6693 41.4583 29.6889 41.4583 24.9896C41.4583 20.2903 39.8438 16.3099 36.6146 13.0484C33.3854 9.78698 29.4444 8.15625 24.7917 8.15625C20.1389 8.15625 16.1979 9.78698 12.9688 13.0484C9.73958 16.3099 8.125 20.2903 8.125 24.9896C8.125 29.6889 9.73958 33.6693 12.9688 36.9307C16.1979 40.1922 20.1389 41.8229 24.7917 41.8229Z" fill="white"/>
</g>
</g>
</svg>
