<svg width="20" height="20" viewBox="0 0 20 20" fill="none" xmlns="http://www.w3.org/2000/svg">
<rect width="20" height="20" rx="10" fill="#F2F2F2"/>
<path d="M13.5192 9.86538C13.4904 8.90638 13.1412 8.09212 12.4716 7.42262C11.802 6.75304 10.9878 6.40383 10.0289 6.375V5.625C10.6122 5.63783 11.1583 5.75738 11.6673 5.98363C12.1762 6.20996 12.6208 6.51317 13.001 6.89325C13.3811 7.27342 13.6843 7.71796 13.9105 8.22688C14.1368 8.73588 14.2564 9.28204 14.2692 9.86538H13.5192ZM11.5192 9.86538C11.4904 9.46471 11.335 9.12254 11.0529 8.83887C10.7708 8.55529 10.4295 8.40067 10.0289 8.375V7.625C10.6372 7.65067 11.1555 7.87838 11.5836 8.30813C12.0119 8.73796 12.2404 9.25704 12.2692 9.86538H11.5192ZM13.7201 14.25C12.7779 14.25 11.8312 14.0309 10.8802 13.5928C9.92933 13.1546 9.05483 12.5365 8.25675 11.7385C7.46192 10.9404 6.84542 10.0667 6.40725 9.11725C5.96908 8.16792 5.75 7.22213 5.75 6.27988C5.75 6.12988 5.8 6.00404 5.9 5.90238C6 5.80079 6.125 5.75 6.275 5.75H7.90575C8.032 5.75 8.14338 5.79121 8.23988 5.87363C8.33637 5.95596 8.39775 6.05771 8.424 6.17887L8.71063 7.65C8.73046 7.7865 8.72629 7.90379 8.69813 8.00188C8.66988 8.09996 8.61921 8.18233 8.54613 8.249L7.39137 9.37312C7.57721 9.71346 7.78954 10.0354 8.02837 10.339C8.26712 10.6425 8.52562 10.9324 8.80387 11.2086C9.07821 11.483 9.36987 11.7379 9.67887 11.9731C9.98787 12.2084 10.3215 12.4273 10.6799 12.6299L11.8019 11.4981C11.8801 11.4167 11.9749 11.3596 12.0861 11.3269C12.1973 11.2942 12.3128 11.2862 12.4328 11.3029L13.8211 11.5856C13.9474 11.619 14.0504 11.6834 14.1302 11.7789C14.2101 11.8744 14.25 11.9827 14.25 12.1039V13.725C14.25 13.875 14.1992 14 14.0976 14.1C13.996 14.2 13.8701 14.25 13.7201 14.25ZM7.0365 8.6635L7.92887 7.80963C7.94488 7.79679 7.95529 7.77917 7.96012 7.75675C7.96496 7.73433 7.96417 7.7135 7.95775 7.69425L7.74038 6.57688C7.73396 6.55129 7.72275 6.53208 7.70675 6.51925C7.69075 6.50642 7.66992 6.5 7.64425 6.5H6.575C6.55575 6.5 6.53971 6.50642 6.52687 6.51925C6.51412 6.53208 6.50775 6.54813 6.50775 6.56738C6.53333 6.90904 6.58925 7.25613 6.6755 7.60863C6.76167 7.96121 6.882 8.31283 7.0365 8.6635ZM11.3865 12.9846C11.7179 13.1391 12.0636 13.2572 12.4235 13.339C12.7835 13.4207 13.1199 13.4692 13.4326 13.4846C13.4519 13.4846 13.4679 13.4782 13.4808 13.4654C13.4936 13.4525 13.5 13.4365 13.5 13.4173V12.3654C13.5 12.3397 13.4936 12.3189 13.4808 12.3029C13.4679 12.2869 13.4487 12.2757 13.4231 12.2693L12.3731 12.0557C12.3539 12.0493 12.337 12.0485 12.3226 12.0534C12.3082 12.0582 12.293 12.0686 12.2769 12.0846L11.3865 12.9846Z" fill="#515151"/>
</svg>
