<svg xmlns="http://www.w3.org/2000/svg" width="20" height="20" viewBox="0 0 20 20" fill="none">
  <path d="M16.2005 17.0832C14.6301 17.0832 13.0524 16.718 11.4674 15.9878C9.88255 15.2575 8.42637 14.2273 7.09887 12.8973C5.77151 11.5672 4.74269 10.1109 4.01241 8.52859C3.28213 6.94637 2.91699 5.37005 2.91699 3.79963C2.91699 3.54727 3.00033 3.33699 3.16699 3.1688C3.33366 3.0006 3.54199 2.9165 3.79199 2.9165H6.50991C6.72033 2.9165 6.90595 2.98518 7.06678 3.12255C7.22762 3.25977 7.32991 3.42935 7.37366 3.6313L7.85137 6.08317C7.88442 6.31067 7.87748 6.50616 7.83053 6.66963C7.78345 6.8331 7.69901 6.97039 7.5772 7.0815L5.65262 8.95505C5.96234 9.52227 6.31623 10.0589 6.71428 10.5648C7.1122 11.0707 7.54303 11.5538 8.00678 12.0142C8.46401 12.4716 8.95012 12.8963 9.46512 13.2884C9.98012 13.6805 10.5362 14.0453 11.1335 14.383L13.0035 12.4967C13.1339 12.361 13.2918 12.2659 13.4772 12.2113C13.6625 12.1569 13.855 12.1435 14.0549 12.1713L16.3689 12.6425C16.5793 12.6981 16.751 12.8055 16.8841 12.9646C17.0171 13.1238 17.0837 13.3044 17.0837 13.5063V16.2082C17.0837 16.4582 16.9996 16.6665 16.8314 16.8332C16.6632 16.9998 16.4529 17.0832 16.2005 17.0832ZM5.06116 7.77234L6.54845 6.34921C6.57512 6.32782 6.59248 6.29845 6.60053 6.26109C6.60859 6.22373 6.60727 6.189 6.59658 6.15692L6.23428 4.29463C6.22359 4.25199 6.20491 4.21998 6.17824 4.19859C6.15158 4.1772 6.11685 4.1665 6.07408 4.1665H4.29199C4.25991 4.1665 4.23317 4.1772 4.21178 4.19859C4.19053 4.21998 4.17991 4.24671 4.17991 4.2788C4.22255 4.84824 4.31574 5.42671 4.45949 6.01421C4.6031 6.60185 4.80366 7.18789 5.06116 7.77234ZM12.3112 14.9742C12.8635 15.2317 13.4396 15.4286 14.0395 15.5648C14.6395 15.7009 15.2001 15.7819 15.7214 15.8075C15.7535 15.8075 15.7802 15.7969 15.8016 15.7755C15.823 15.7541 15.8337 15.7273 15.8337 15.6953V13.9421C15.8337 13.8994 15.823 13.8646 15.8016 13.838C15.7802 13.8113 15.7482 13.7926 15.7055 13.7819L13.9555 13.4261C13.9235 13.4154 13.8954 13.4141 13.8714 13.4221C13.8473 13.4302 13.8219 13.4475 13.7951 13.4742L12.3112 14.9742Z" fill="#18171A"/>
</svg>