<svg xmlns="http://www.w3.org/2000/svg" width="24" height="24" viewBox="0 0 24 24" fill="none">
<rect width="24" height="24" rx="12" fill="white"/>
<path d="M16.692 11.8203C16.6536 10.5417 16.188 9.456 15.2952 8.56334C14.4024 7.67056 13.3167 7.20495 12.0382 7.1665V6.1665C12.816 6.18362 13.5441 6.343 14.2227 6.64467C14.9013 6.94645 15.4941 7.35073 16.001 7.8575C16.5078 8.36439 16.912 8.95712 17.2137 9.63567C17.5155 10.3143 17.6749 11.0426 17.692 11.8203H16.692ZM14.0253 11.8203C13.9869 11.2861 13.7796 10.8299 13.4035 10.4517C13.0274 10.0736 12.5723 9.86739 12.0382 9.83317V8.83317C12.8493 8.86739 13.5403 9.171 14.1112 9.744C14.6822 10.3171 14.9869 11.0092 15.0253 11.8203H14.0253ZM16.9598 17.6665C15.7035 17.6665 14.4413 17.3744 13.1733 16.7902C11.9055 16.2059 10.7395 15.3818 9.67534 14.3178C8.61556 13.2537 7.79356 12.0887 7.20934 10.8228C6.62512 9.55706 6.33301 8.296 6.33301 7.03967C6.33301 6.83967 6.39967 6.67189 6.53301 6.53634C6.66634 6.40089 6.83301 6.33317 7.03301 6.33317H9.20734C9.37567 6.33317 9.52417 6.38812 9.65284 6.498C9.78151 6.60778 9.86334 6.74345 9.89834 6.905L10.2805 8.8665C10.307 9.0485 10.3014 9.20489 10.2638 9.33567C10.2262 9.46645 10.1586 9.57628 10.0612 9.66517L8.52151 11.164C8.76929 11.6178 9.0524 12.0471 9.37084 12.4518C9.68917 12.8565 10.0338 13.243 10.4048 13.6113C10.7706 13.9772 11.1595 14.317 11.5715 14.6307C11.9835 14.9443 12.4284 15.2362 12.9062 15.5063L14.4022 13.9973C14.5065 13.8888 14.6328 13.8127 14.7812 13.769C14.9294 13.7254 15.0835 13.7148 15.2433 13.737L17.0945 14.114C17.2628 14.1584 17.4002 14.2443 17.5067 14.3717C17.6131 14.499 17.6663 14.6434 17.6663 14.805V16.9665C17.6663 17.1665 17.5986 17.3332 17.4632 17.4665C17.3276 17.5998 17.1598 17.6665 16.9598 17.6665ZM8.04834 10.2178L9.23817 9.07934C9.25951 9.06223 9.2734 9.03873 9.27984 9.00884C9.28629 8.97895 9.28523 8.95117 9.27667 8.9255L8.98684 7.43567C8.97829 7.40156 8.96334 7.37595 8.94201 7.35884C8.92067 7.34173 8.8929 7.33317 8.85867 7.33317H7.43301C7.40734 7.33317 7.38595 7.34173 7.36884 7.35884C7.35184 7.37595 7.34334 7.39734 7.34334 7.423C7.37745 7.87856 7.45201 8.34134 7.56701 8.81134C7.6819 9.28145 7.84234 9.75028 8.04834 10.2178ZM13.8483 15.9793C14.2902 16.1853 14.7511 16.3428 15.231 16.4518C15.711 16.5607 16.1595 16.6254 16.5765 16.646C16.6022 16.646 16.6236 16.6374 16.6407 16.6203C16.6578 16.6032 16.6663 16.5818 16.6663 16.5562V15.1537C16.6663 15.1194 16.6578 15.0917 16.6407 15.0703C16.6236 15.049 16.598 15.0341 16.5638 15.0255L15.1638 14.7408C15.1382 14.7323 15.1157 14.7312 15.0965 14.7377C15.0773 14.7441 15.057 14.758 15.0355 14.7793L13.8483 15.9793Z" fill="#515151"/>
</svg>