<svg width="24" height="24" viewBox="0 0 24 24" fill="none" xmlns="http://www.w3.org/2000/svg">
<g id="search">
<path id="Vector" d="M19.5421 20.577L13.2613 14.296C12.7613 14.7088 12.1863 15.0319 11.5363 15.2653C10.8863 15.4986 10.2139 15.6153 9.51906 15.6153C7.80989 15.6153 6.36339 15.0235 5.17956 13.84C3.99573 12.6565 3.40381 11.2103 3.40381 9.50152C3.40381 7.79285 3.99556 6.34618 5.17906 5.16152C6.36256 3.97702 7.80872 3.38477 9.51756 3.38477C11.2262 3.38477 12.6729 3.97668 13.8576 5.16051C15.0421 6.34435 15.6343 7.79085 15.6343 9.50002C15.6343 10.2142 15.5145 10.8963 15.2748 11.5463C15.035 12.1963 14.7151 12.7616 14.3151 13.2423L20.5958 19.523L19.5421 20.577ZM9.51906 14.1155C10.8076 14.1155 11.8989 13.6683 12.7931 12.774C13.6874 11.8798 14.1346 10.7885 14.1346 9.50002C14.1346 8.21152 13.6874 7.12018 12.7931 6.22601C11.8989 5.33168 10.8076 4.88452 9.51906 4.88452C8.23056 4.88452 7.13923 5.33168 6.24506 6.22601C5.35073 7.12018 4.90356 8.21152 4.90356 9.50002C4.90356 10.7885 5.35073 11.8798 6.24506 12.774C7.13923 13.6683 8.23056 14.1155 9.51906 14.1155Z" fill="#515151"/>
</g>
</svg>
