<svg xmlns="http://www.w3.org/2000/svg" width="40" height="40" viewBox="0 0 40 40" fill="none">
  <path d="M15.3502 37.1161L12.376 32.1036L6.72854 30.8661L7.27979 25.0523L3.45312 20.674L7.27979 16.2957L6.72854 10.4819L12.376 9.24443L15.3502 4.23193L20.6644 6.48818L25.9786 4.23193L28.9527 9.24443L34.6002 10.4819L34.049 16.2957L37.8756 20.674L34.049 25.0523L34.6002 30.8661L28.9527 32.1036L25.9786 37.1161L20.6644 34.8598L15.3502 37.1161ZM16.4144 33.924L20.6644 32.1228L24.9656 33.924L27.3311 29.924L31.9144 28.8728L31.4977 24.174L34.5811 20.674L31.4977 17.1228L31.9144 12.424L27.3311 11.424L24.9144 7.42401L20.6644 9.22526L16.3631 7.42401L13.9977 11.424L9.41438 12.424L9.83105 17.1228L6.74771 20.674L9.83105 24.174L9.41438 28.924L13.9977 29.924L16.4144 33.924ZM18.9144 26.0136L27.754 17.174L25.9977 15.3665L18.9144 22.4498L15.331 18.9178L13.5748 20.674L18.9144 26.0136Z" fill="#298555"/>
</svg>