<svg width="40" height="40" viewBox="0 0 40 40" fill="none" xmlns="http://www.w3.org/2000/svg">
<path id="Vector" d="M13.8248 40L10.3687 33.9028L3.80613 32.3976L4.4467 25.3258L0 20L4.4467 14.6742L3.80613 7.60244L10.3687 6.09716L13.8248 0L20 2.74448L26.1752 0L29.6313 6.09716L36.1939 7.60244L35.5533 14.6742L40 20L35.5533 25.3258L36.1939 32.3976L29.6313 33.9028L26.1752 40L20 37.2555L13.8248 40ZM15.0614 36.1172L20 33.9262L24.9982 36.1172L27.7469 31.2516L33.0728 29.9729L32.5887 24.2574L36.1716 20L32.5887 15.6803L33.0728 9.96478L27.7469 8.74838L24.9386 3.88282L20 6.07384L15.0018 3.88282L12.2531 8.74838L6.92716 9.96478L7.41133 15.6803L3.82841 20L7.41133 24.2574L6.92716 30.0352L12.2531 31.2516L15.0614 36.1172ZM17.9664 26.495L28.2383 15.7426L26.1975 13.544L17.9664 22.1601L13.8025 17.8637L11.7617 20L17.9664 26.495Z" fill="white"/>
</svg>
