<svg xmlns="http://www.w3.org/2000/svg" width="24" height="24" viewBox="0 0 24 24" fill="none">
<rect width="24" height="24" rx="12" fill="white"/>
<path d="M14.3157 15.0178L15.0183 14.3152L12.5003 11.7972V8.6665H11.5003V12.2023L14.3157 15.0178ZM12.0015 18.3332C11.1255 18.3332 10.3021 18.1669 9.53133 17.8345C8.76055 17.5021 8.0901 17.0509 7.51999 16.481C6.94988 15.9111 6.49849 15.2409 6.16583 14.4705C5.83327 13.7001 5.66699 12.8769 5.66699 12.001C5.66699 11.125 5.83321 10.3016 6.16566 9.53084C6.4981 8.76006 6.94927 8.08961 7.51916 7.5195C8.08905 6.94939 8.75921 6.498 9.52966 6.16534C10.3001 5.83278 11.1233 5.6665 11.9992 5.6665C12.8752 5.6665 13.6985 5.83273 14.4693 6.16517C15.2401 6.49761 15.9105 6.94878 16.4807 7.51867C17.0508 8.08856 17.5022 8.75873 17.8348 9.52917C18.1674 10.2996 18.3337 11.1228 18.3337 11.9987C18.3337 12.8747 18.1674 13.6981 17.835 14.4688C17.5025 15.2396 17.0514 15.9101 16.4815 16.4802C15.9116 17.0503 15.2414 17.5017 14.471 17.8343C13.7005 18.1669 12.8774 18.3332 12.0015 18.3332ZM12.0003 17.3332C13.4781 17.3332 14.7364 16.8137 15.7753 15.7748C16.8142 14.7359 17.3337 13.4776 17.3337 11.9998C17.3337 10.5221 16.8142 9.26373 15.7753 8.22484C14.7364 7.18595 13.4781 6.6665 12.0003 6.6665C10.5225 6.6665 9.26421 7.18595 8.22533 8.22484C7.18644 9.26373 6.66699 10.5221 6.66699 11.9998C6.66699 13.4776 7.18644 14.7359 8.22533 15.7748C9.26421 16.8137 10.5225 17.3332 12.0003 17.3332Z" fill="#18171A"/>
</svg>