<svg width="24" height="24" viewBox="0 0 24 24" fill="none" xmlns="http://www.w3.org/2000/svg">
<g id="verified_24dp_FILL0_wght300_GRAD0_opsz24 1">
<path id="Vector" d="M9.20857 22.2696L7.42407 19.2621L4.03556 18.5196L4.36631 15.0313L2.07031 12.4043L4.36631 9.77731L4.03556 6.28906L7.42407 5.54656L9.20857 2.53906L12.3971 3.89281L15.5856 2.53906L17.3701 5.54656L20.7586 6.28906L20.4278 9.77731L22.7238 12.4043L20.4278 15.0313L20.7586 18.5196L17.3701 19.2621L15.5856 22.2696L12.3971 20.9158L9.20857 22.2696ZM9.84707 20.3543L12.3971 19.2736L14.9778 20.3543L16.3971 17.9543L19.1471 17.3236L18.8971 14.5043L20.7471 12.4043L18.8971 10.2736L19.1471 7.45431L16.3971 6.85431L14.9471 4.45431L12.3971 5.53506L9.81632 4.45431L8.39707 6.85431L5.64706 7.45431L5.89706 10.2736L4.04706 12.4043L5.89706 14.5043L5.64706 17.3543L8.39707 17.9543L9.84707 20.3543ZM11.3471 15.6081L16.6508 10.3043L15.5971 9.21981L11.3471 13.4698L9.19707 11.3506L8.14332 12.4043L11.3471 15.6081Z" fill="#298555"/>
</g>
</svg>
