<svg width="24" height="24" viewBox="0 0 24 24" fill="none" xmlns="http://www.w3.org/2000/svg">
<path d="M14.0388 20.1098V18.5598C15.4811 18.101 16.643 17.2677 17.5243 16.0598C18.4058 14.8522 18.8465 13.4907 18.8465 11.9753C18.8465 10.46 18.4058 9.09849 17.5243 7.89082C16.643 6.68299 15.4811 5.84965 14.0388 5.39082V3.84082C15.9003 4.33949 17.417 5.33882 18.5888 6.83882C19.7605 8.33882 20.3463 10.051 20.3463 11.9753C20.3463 13.8997 19.7605 15.6118 18.5888 17.1118C17.417 18.6118 15.9003 19.6112 14.0388 20.1098ZM3.6543 14.5003V9.50032H7.3658L11.654 5.21207V18.7886L7.3658 14.5003H3.6543ZM14.0388 15.6541V8.29657C14.7131 8.66324 15.2343 9.17957 15.6023 9.84557C15.9701 10.5116 16.154 11.2298 16.154 12.0003C16.154 12.7605 15.9685 13.4678 15.5973 14.1223C15.2261 14.7768 14.7066 15.2874 14.0388 15.6541ZM10.154 8.85032L8.00405 11.0003H5.15405V13.0003H8.00405L10.154 15.1503V8.85032Z" fill="white"/>
</svg>
