<svg xmlns="http://www.w3.org/2000/svg" width="20" height="20" viewBox="0 0 20 20" fill="none">
  <path d="M15.2785 4.68742C14.5893 3.99131 13.7685 3.43939 12.8638 3.06384C11.9591 2.68829 10.9887 2.49663 10.0092 2.50004C5.90509 2.50004 2.56013 5.845 2.56013 9.94914C2.56013 11.2646 2.9059 12.5424 3.55234 13.6699L2.5 17.5335L6.44629 16.4962C7.53622 17.09 8.76145 17.4058 10.0092 17.4058C14.1134 17.4058 17.4583 14.0608 17.4583 9.95666C17.4583 7.96472 16.6841 6.09305 15.2785 4.68742ZM10.0092 16.1429C8.89675 16.1429 7.80682 15.8423 6.8522 15.2785L6.62669 15.1432L4.28147 15.7596L4.90536 13.4745L4.75502 13.2415C4.13696 12.2545 3.80877 11.1137 3.80791 9.94914C3.80791 6.53654 6.58911 3.75534 10.0017 3.75534C11.6554 3.75534 13.2114 4.40178 14.3765 5.57439C14.9534 6.14865 15.4105 6.83169 15.7215 7.58394C16.0325 8.33619 16.191 9.14268 16.188 9.95666C16.203 13.3693 13.4218 16.1429 10.0092 16.1429ZM13.4068 11.5126C13.2189 11.4224 12.3018 10.9714 12.1365 10.9038C11.9636 10.8436 11.8433 10.8136 11.7155 10.994C11.5877 11.1819 11.2345 11.6028 11.1292 11.7231C11.024 11.8509 10.9112 11.8659 10.7233 11.7682C10.5354 11.678 9.93406 11.475 9.22749 10.8436C8.67125 10.3475 8.30293 9.73867 8.19018 9.55075C8.08494 9.36283 8.17514 9.26512 8.27286 9.1674C8.35554 9.08471 8.46078 8.94941 8.55098 8.84418C8.64118 8.73894 8.67876 8.65626 8.7389 8.53599C8.79903 8.40821 8.76897 8.30297 8.72387 8.21277C8.67876 8.12257 8.30293 7.20553 8.15259 6.82969C8.00226 6.46889 7.84441 6.51399 7.73165 6.50647H7.37085C7.24307 6.50647 7.04763 6.55157 6.87475 6.73949C6.70938 6.92741 6.22831 7.37841 6.22831 8.29546C6.22831 9.2125 6.8973 10.0995 6.9875 10.2197C7.0777 10.3475 8.30293 12.2267 10.1671 13.031C10.6106 13.2264 10.9563 13.3392 11.2269 13.4219C11.6704 13.5647 12.0763 13.5421 12.3996 13.497C12.7604 13.4444 13.5045 13.046 13.6548 12.6101C13.8127 12.1741 13.8127 11.8058 13.7601 11.7231C13.7075 11.6404 13.5947 11.6028 13.4068 11.5126Z" fill="#18171A"/>
</svg>